<mxfile host="app.diagrams.net" modified="2023-12-06T03:29:13.677Z" agent="Mozilla/5.0 (Windows NT 10.0; Win64; x64) AppleWebKit/537.36 (KHTML, like Gecko) Chrome/119.0.0.0 Safari/537.36" etag="plIiNzqkxKIJ_4MFTwkK" version="22.1.5" type="github">
  <diagram name="Page-1" id="74b105a0-9070-1c63-61bc-23e55f88626e">
    <mxGraphModel dx="1050" dy="522" grid="1" gridSize="10" guides="1" tooltips="1" connect="1" arrows="1" fold="1" page="1" pageScale="1.5" pageWidth="1169" pageHeight="826" background="none" math="0" shadow="0">
      <root>
        <mxCell id="0" style=";html=1;" />
        <mxCell id="1" style=";html=1;" parent="0" />
        <mxCell id="Iq9hyGAaIx_jG9ze1r6Z-13" style="edgeStyle=orthogonalEdgeStyle;rounded=1;orthogonalLoop=1;jettySize=auto;html=1;exitX=1;exitY=0.5;exitDx=0;exitDy=0;sketch=1;curveFitting=1;jiggle=2;labelBackgroundColor=none;fontColor=default;" edge="1" parent="1" source="Iq9hyGAaIx_jG9ze1r6Z-8" target="Iq9hyGAaIx_jG9ze1r6Z-11">
          <mxGeometry relative="1" as="geometry" />
        </mxCell>
        <mxCell id="Iq9hyGAaIx_jG9ze1r6Z-8" value="" style="rounded=1;whiteSpace=wrap;html=1;sketch=1;curveFitting=1;jiggle=2;labelBackgroundColor=none;" vertex="1" parent="1">
          <mxGeometry x="892.5" y="560" width="155" height="210" as="geometry" />
        </mxCell>
        <mxCell id="Iq9hyGAaIx_jG9ze1r6Z-5" value="&lt;h3&gt;数据处理&lt;/h3&gt;" style="text;html=1;strokeColor=none;fillColor=none;align=center;verticalAlign=middle;whiteSpace=wrap;rounded=1;sketch=1;curveFitting=1;jiggle=2;labelBackgroundColor=none;" vertex="1" parent="1">
          <mxGeometry x="930" y="570" width="80" height="30" as="geometry" />
        </mxCell>
        <mxCell id="Iq9hyGAaIx_jG9ze1r6Z-6" value="标准化" style="rounded=1;whiteSpace=wrap;html=1;sketch=1;curveFitting=1;jiggle=2;labelBackgroundColor=none;" vertex="1" parent="1">
          <mxGeometry x="915" y="620" width="110" height="46" as="geometry" />
        </mxCell>
        <mxCell id="Iq9hyGAaIx_jG9ze1r6Z-7" value="滑动窗口" style="rounded=1;whiteSpace=wrap;html=1;sketch=1;curveFitting=1;jiggle=2;labelBackgroundColor=none;" vertex="1" parent="1">
          <mxGeometry x="915" y="684" width="110" height="46" as="geometry" />
        </mxCell>
        <mxCell id="Iq9hyGAaIx_jG9ze1r6Z-10" style="edgeStyle=orthogonalEdgeStyle;rounded=1;orthogonalLoop=1;jettySize=auto;html=1;sketch=1;curveFitting=1;jiggle=2;labelBackgroundColor=none;fontColor=default;" edge="1" parent="1" source="Iq9hyGAaIx_jG9ze1r6Z-9" target="Iq9hyGAaIx_jG9ze1r6Z-8">
          <mxGeometry relative="1" as="geometry" />
        </mxCell>
        <mxCell id="Iq9hyGAaIx_jG9ze1r6Z-9" value="&lt;font style=&quot;font-size: 20px;&quot;&gt;KPI时间序列&lt;/font&gt;" style="text;html=1;strokeColor=none;fillColor=none;align=center;verticalAlign=middle;whiteSpace=wrap;rounded=1;sketch=1;curveFitting=1;jiggle=2;labelBackgroundColor=none;" vertex="1" parent="1">
          <mxGeometry x="730" y="648" width="80" height="34" as="geometry" />
        </mxCell>
        <mxCell id="Iq9hyGAaIx_jG9ze1r6Z-20" style="edgeStyle=orthogonalEdgeStyle;rounded=0;sketch=1;hachureGap=4;jiggle=2;curveFitting=1;orthogonalLoop=1;jettySize=auto;html=1;exitX=1;exitY=0.5;exitDx=0;exitDy=0;fontFamily=Architects Daughter;fontSource=https%3A%2F%2Ffonts.googleapis.com%2Fcss%3Ffamily%3DArchitects%2BDaughter;fontSize=16;labelBackgroundColor=none;fontColor=default;" edge="1" parent="1" source="Iq9hyGAaIx_jG9ze1r6Z-11" target="Iq9hyGAaIx_jG9ze1r6Z-19">
          <mxGeometry relative="1" as="geometry" />
        </mxCell>
        <mxCell id="Iq9hyGAaIx_jG9ze1r6Z-11" value="" style="rounded=1;whiteSpace=wrap;html=1;sketch=1;curveFitting=1;jiggle=2;labelBackgroundColor=none;" vertex="1" parent="1">
          <mxGeometry x="1110" y="560" width="155" height="210" as="geometry" />
        </mxCell>
        <mxCell id="Iq9hyGAaIx_jG9ze1r6Z-12" value="&lt;h3&gt;异常检测&lt;/h3&gt;" style="text;html=1;strokeColor=none;fillColor=none;align=center;verticalAlign=middle;whiteSpace=wrap;rounded=1;sketch=1;curveFitting=1;jiggle=2;labelBackgroundColor=none;" vertex="1" parent="1">
          <mxGeometry x="1147.5" y="570" width="80" height="30" as="geometry" />
        </mxCell>
        <mxCell id="Iq9hyGAaIx_jG9ze1r6Z-15" value="DBSCAN聚类" style="rounded=1;whiteSpace=wrap;html=1;sketch=1;curveFitting=1;jiggle=2;labelBackgroundColor=none;" vertex="1" parent="1">
          <mxGeometry x="1132.5" y="610" width="110" height="46" as="geometry" />
        </mxCell>
        <mxCell id="Iq9hyGAaIx_jG9ze1r6Z-16" value="LOF立群因子" style="rounded=1;whiteSpace=wrap;html=1;sketch=1;curveFitting=1;jiggle=2;labelBackgroundColor=none;" vertex="1" parent="1">
          <mxGeometry x="1132.5" y="670" width="110" height="46" as="geometry" />
        </mxCell>
        <mxCell id="Iq9hyGAaIx_jG9ze1r6Z-18" value="&lt;h3&gt;&lt;b&gt;……&lt;/b&gt;&lt;/h3&gt;" style="text;html=1;strokeColor=none;fillColor=none;align=center;verticalAlign=middle;whiteSpace=wrap;rounded=0;fontSize=20;fontFamily=Architects Daughter;labelBackgroundColor=none;" vertex="1" parent="1">
          <mxGeometry x="1158" y="730" width="60" height="30" as="geometry" />
        </mxCell>
        <mxCell id="Iq9hyGAaIx_jG9ze1r6Z-19" value="&lt;p&gt;&lt;font face=&quot;Helvetica&quot;&gt;异常得分&lt;/font&gt;&lt;/p&gt;" style="text;html=1;strokeColor=none;fillColor=none;align=center;verticalAlign=middle;whiteSpace=wrap;rounded=0;fontSize=20;fontFamily=Architects Daughter;labelBackgroundColor=none;" vertex="1" parent="1">
          <mxGeometry x="1340" y="650" width="60" height="30" as="geometry" />
        </mxCell>
        <mxCell id="Iq9hyGAaIx_jG9ze1r6Z-25" value="NEW" style="dashed=0;html=1;rounded=1;strokeColor=#6554C0;fontSize=12;align=center;fontStyle=1;strokeWidth=2;fontColor=#6554C0;sketch=1;hachureGap=4;jiggle=2;curveFitting=1;fontFamily=Architects Daughter;fontSource=https%3A%2F%2Ffonts.googleapis.com%2Fcss%3Ffamily%3DArchitects%2BDaughter;" vertex="1" parent="1">
          <mxGeometry x="1218" y="600" width="40" height="20" as="geometry" />
        </mxCell>
        <mxCell id="Iq9hyGAaIx_jG9ze1r6Z-26" value="NEW" style="dashed=0;html=1;rounded=1;strokeColor=#6554C0;fontSize=12;align=center;fontStyle=1;strokeWidth=2;fontColor=#6554C0;sketch=1;hachureGap=4;jiggle=2;curveFitting=1;fontFamily=Architects Daughter;fontSource=https%3A%2F%2Ffonts.googleapis.com%2Fcss%3Ffamily%3DArchitects%2BDaughter;" vertex="1" parent="1">
          <mxGeometry x="1218" y="666" width="40" height="20" as="geometry" />
        </mxCell>
      </root>
    </mxGraphModel>
  </diagram>
</mxfile>
